<mxfile host="Electron" modified="2023-11-11T21:13:07.627Z" agent="Mozilla/5.0 (Windows NT 10.0; Win64; x64) AppleWebKit/537.36 (KHTML, like Gecko) draw.io/22.0.3 Chrome/114.0.5735.289 Electron/25.8.4 Safari/537.36" etag="1-e3GAGXn24nSJtnHDDj" version="22.0.3" type="device">
  <diagram name="Page-1" id="d3cnj8sPrJLF0vtEHGdZ">
    <mxGraphModel dx="1195" dy="697" grid="1" gridSize="10" guides="1" tooltips="1" connect="1" arrows="1" fold="1" page="1" pageScale="1" pageWidth="1700" pageHeight="1100" math="0" shadow="0">
      <root>
        <mxCell id="0" />
        <mxCell id="1" parent="0" />
        <mxCell id="_M90sWIP7VDGDSAHjgcB-10" value="" style="edgeStyle=orthogonalEdgeStyle;rounded=0;orthogonalLoop=1;jettySize=auto;html=1;" edge="1" parent="1" source="_M90sWIP7VDGDSAHjgcB-2" target="_M90sWIP7VDGDSAHjgcB-9">
          <mxGeometry relative="1" as="geometry" />
        </mxCell>
        <mxCell id="_M90sWIP7VDGDSAHjgcB-2" value="Initialization" style="rounded=1;whiteSpace=wrap;html=1;" vertex="1" parent="1">
          <mxGeometry x="380" y="40" width="120" height="60" as="geometry" />
        </mxCell>
        <mxCell id="_M90sWIP7VDGDSAHjgcB-19" value="" style="edgeStyle=orthogonalEdgeStyle;rounded=0;orthogonalLoop=1;jettySize=auto;html=1;" edge="1" parent="1" source="_M90sWIP7VDGDSAHjgcB-9" target="_M90sWIP7VDGDSAHjgcB-18">
          <mxGeometry relative="1" as="geometry" />
        </mxCell>
        <mxCell id="_M90sWIP7VDGDSAHjgcB-9" value="Read &lt;br&gt;Pulse Count" style="shape=process;whiteSpace=wrap;html=1;backgroundOutline=1;" vertex="1" parent="1">
          <mxGeometry x="380" y="180" width="120" height="60" as="geometry" />
        </mxCell>
        <mxCell id="_M90sWIP7VDGDSAHjgcB-15" value="Read from FRAM via SPI" style="text;html=1;strokeColor=none;fillColor=none;align=center;verticalAlign=middle;whiteSpace=wrap;rounded=0;" vertex="1" parent="1">
          <mxGeometry x="550" y="190" width="90" height="40" as="geometry" />
        </mxCell>
        <mxCell id="_M90sWIP7VDGDSAHjgcB-16" value="" style="shape=curlyBracket;whiteSpace=wrap;html=1;rounded=1;flipH=1;labelPosition=right;verticalLabelPosition=middle;align=left;verticalAlign=middle;" vertex="1" parent="1">
          <mxGeometry x="520" y="180" width="20" height="60" as="geometry" />
        </mxCell>
        <mxCell id="_M90sWIP7VDGDSAHjgcB-18" value="Main Loop" style="rhombus;whiteSpace=wrap;html=1;" vertex="1" parent="1">
          <mxGeometry x="400" y="310" width="80" height="80" as="geometry" />
        </mxCell>
        <mxCell id="_M90sWIP7VDGDSAHjgcB-22" value="&lt;div style=&quot;text-align: left; line-height: 100%;&quot;&gt;&lt;ul style=&quot;line-height: 100%;&quot;&gt;&lt;li&gt;&lt;span style=&quot;background-color: initial; text-align: left;&quot;&gt;GPIO&lt;/span&gt;&lt;/li&gt;&lt;li&gt;&lt;span style=&quot;background-color: initial;&quot;&gt;SPI&lt;/span&gt;&lt;br&gt;&lt;/li&gt;&lt;li&gt;&lt;span style=&quot;background-color: initial;&quot;&gt;UART&lt;/span&gt;&lt;br&gt;&lt;/li&gt;&lt;li&gt;&lt;span style=&quot;background-color: initial;&quot;&gt;INTERUPTS&lt;/span&gt;&lt;br&gt;&lt;/li&gt;&lt;/ul&gt;&lt;/div&gt;" style="text;html=1;strokeColor=none;fillColor=none;align=center;verticalAlign=middle;whiteSpace=wrap;rounded=0;" vertex="1" parent="1">
          <mxGeometry x="530" y="40" width="90" height="60" as="geometry" />
        </mxCell>
        <mxCell id="_M90sWIP7VDGDSAHjgcB-23" value="" style="shape=curlyBracket;whiteSpace=wrap;html=1;rounded=1;flipH=1;labelPosition=right;verticalLabelPosition=middle;align=left;verticalAlign=middle;" vertex="1" parent="1">
          <mxGeometry x="510" y="40" width="20" height="60" as="geometry" />
        </mxCell>
        <mxCell id="_M90sWIP7VDGDSAHjgcB-24" style="edgeStyle=orthogonalEdgeStyle;rounded=0;orthogonalLoop=1;jettySize=auto;html=1;exitX=1;exitY=0.5;exitDx=0;exitDy=0;entryX=0.5;entryY=1;entryDx=0;entryDy=0;" edge="1" parent="1" source="_M90sWIP7VDGDSAHjgcB-18" target="_M90sWIP7VDGDSAHjgcB-18">
          <mxGeometry relative="1" as="geometry">
            <mxPoint x="460" y="390" as="sourcePoint" />
            <mxPoint x="460" y="410" as="targetPoint" />
            <Array as="points">
              <mxPoint x="530" y="350" />
              <mxPoint x="530" y="440" />
              <mxPoint x="440" y="440" />
            </Array>
          </mxGeometry>
        </mxCell>
        <mxCell id="_M90sWIP7VDGDSAHjgcB-25" value="" style="shape=process;whiteSpace=wrap;html=1;backgroundOutline=1;" vertex="1" parent="1">
          <mxGeometry x="280" y="490" width="120" height="60" as="geometry" />
        </mxCell>
        <mxCell id="_M90sWIP7VDGDSAHjgcB-26" value="f" style="text;html=1;strokeColor=none;fillColor=none;align=center;verticalAlign=middle;whiteSpace=wrap;rounded=0;" vertex="1" parent="1">
          <mxGeometry x="610" y="300" width="60" height="60" as="geometry" />
        </mxCell>
      </root>
    </mxGraphModel>
  </diagram>
</mxfile>
